<svg width="691" height="416" viewBox="0 0 691 416" fill="none" xmlns="http://www.w3.org/2000/svg">
<g opacity="0.1" filter="url(#filter0_f_36_398)">
<ellipse cx="332" cy="208" rx="341" ry="84" fill="url(#paint0_radial_36_398)"/>
</g>
<path opacity="0.3" d="M672.5 206C672.5 217.308 663.183 228.229 645.951 238.265C628.754 248.28 603.837 257.316 573.004 264.911C511.344 280.1 426.136 289.5 332 289.5C237.864 289.5 152.656 280.1 90.9962 264.911C60.1626 257.316 35.2456 248.28 18.0491 238.265C0.817009 228.229 -8.5 217.308 -8.5 206C-8.5 194.692 0.817009 183.771 18.0491 173.735C35.2456 163.72 60.1626 154.684 90.9962 147.089C152.656 131.9 237.864 122.5 332 122.5C426.136 122.5 511.344 131.9 573.004 147.089C603.837 154.684 628.754 163.72 645.951 173.735C663.183 183.771 672.5 194.692 672.5 206Z" stroke="#7270FF"/>
<defs>
<filter id="filter0_f_36_398" x="-133" y="0" width="930" height="416" filterUnits="userSpaceOnUse" color-interpolation-filters="sRGB">
<feFlood flood-opacity="0" result="BackgroundImageFix"/>
<feBlend mode="normal" in="SourceGraphic" in2="BackgroundImageFix" result="shape"/>
<feGaussianBlur stdDeviation="62" result="effect1_foregroundBlur_36_398"/>
</filter>
<radialGradient id="paint0_radial_36_398" cx="0" cy="0" r="1" gradientUnits="userSpaceOnUse" gradientTransform="translate(332 208) scale(341 84)">
<stop stop-color="#7270FF"/>
<stop offset="1" stop-color="#ADABFF"/>
</radialGradient>
</defs>
</svg>
