<?xml version="1.0" encoding="utf-8"?>
<!-- Generator: Adobe Illustrator 27.4.0, SVG Export Plug-In . SVG Version: 6.00 Build 0)  -->
<svg version="1.1" id="Layer_1" xmlns="http://www.w3.org/2000/svg" xmlns:xlink="http://www.w3.org/1999/xlink" x="0px" y="0px"
	 viewBox="0 0 1920 1080" style="enable-background:new 0 0 1920 1080;" xml:space="preserve">
<style type="text/css">
	.st0{fill:#0D0735;}
	.st1{fill:#4446FF;}
</style>
<g>
	<g>
		<g>
			<path class="st0" d="M1083.59,413.36l99.14,256.9h-53.55l-17.01-46.31h-109.27l-17.01,46.31h-53.55l98.78-256.9H1083.59z
				 M1095.53,578.35l-37.99-103.12l-37.99,103.12H1095.53z"/>
			<path class="st0" d="M1319.86,489.34c0-27.5-19.9-34.37-33.29-34.37c-15.56,0-35.82,9.41-35.82,38.71v6.51h-49.21v-10.86
				c0-42.7,28.58-79.6,85.75-79.6c51.74,0,83.94,31.48,83.94,72.73c0,33.65-20.99,57.89-42.33,85.39l-45.59,59.34h87.92v43.06
				h-173.31l81.77-108.19C1309.01,523.72,1319.86,509.97,1319.86,489.34z"/>
		</g>
	</g>
	<g>
		<path class="st1" d="M690.14,509.4v98.28c0,12.01-9.74,21.75-21.75,21.75h-97.87c-12.01,0-21.75-9.74-21.75-21.75V509.4
			c0-12.01,9.74-21.75,21.75-21.75h97.87C680.4,487.65,690.14,497.39,690.14,509.4z"/>
		<path class="st1" d="M1371.24,323.72c-104.2,11.65-205.36,11.99-288.9-70.4c-74,72.78-165.17,103.33-265.59,116.52
			c-1.05,22.53-2.04,43.76-3.12,66.99c-16.01,0-30.45,0-46.2,0c0-37.4,0-74.09,0-113.62c125.93-10.14,240.56-38.59,314.94-153.8
			C1151.88,275.69,1255.86,310.28,1371.24,323.72z"/>
		<path class="st1" d="M790.73,583.09c20.66,0,34.56,0,51.98,0c44.39,119.18,126.62,207.46,244.2,272.81
			c65.5-36.56,133.4-74.47,202.95-113.28c-55.89,72.49-125.82,125.47-207.44,167.98C945.75,839.06,843.05,737.61,790.73,583.09z"/>
		<path class="st1" d="M841.01,485.99v49.26c0,12.01-9.74,21.75-21.75,21.75h-50.96c-12.01,0-21.75-9.74-21.75-21.75v-49.26
			c0-12.01,9.74-21.75,21.75-21.75h50.96C831.28,464.24,841.01,473.98,841.01,485.99z"/>
		<path class="st1" d="M624.92,406.52V378c0-12.01,9.74-21.75,21.75-21.75h29.24c12.01,0,21.75,9.74,21.75,21.75v28.52
			c0,12.01-9.74,21.75-21.75,21.75h-29.24C634.66,428.27,624.92,418.53,624.92,406.52z"/>
	</g>
</g>
</svg>
